<svg width="320" height="241" viewBox="0 0 320 241" fill="none" xmlns="http://www.w3.org/2000/svg">
<path d="M285.85 100.088H239.18L231.39 113.538L254 130.188C251.66 136.618 249 141.788 239 142.078C231.638 142.153 224.352 140.589 217.67 137.498L215.91 140.498L239.19 180.828H285.86L309.14 140.498L285.85 100.088ZM252.43 114.628L252.53 122.028H246.39L246.68 114.818C245.898 114.363 245.252 113.708 244.807 112.921C244.363 112.134 244.136 111.242 244.15 110.338C244.147 109.433 244.378 108.544 244.819 107.754C245.26 106.965 245.898 106.303 246.67 105.831C247.442 105.36 248.322 105.096 249.226 105.064C250.13 105.033 251.027 105.235 251.83 105.651C252.633 106.067 253.315 106.683 253.81 107.44C254.306 108.196 254.598 109.068 254.658 109.97C254.719 110.873 254.545 111.775 254.155 112.591C253.765 113.407 253.171 114.109 252.43 114.628Z" fill="#FFDE83"/>
<path d="M264.03 93.3682H257.21V95.7082H264.03V93.3682Z" fill="#E5E5E5"/>
<g style="mix-blend-mode:multiply">
<path d="M242.01 93.3682H235.19V95.7082H242.01V93.3682Z" fill="#E5E5E5"/>
</g>
<g style="mix-blend-mode:multiply" opacity="0.3">
<path d="M181 98.7279C181 98.7279 160.44 107.108 141.45 97.1679L143.3 89.5679C143.23 89.6279 157.06 103.788 181 98.7279Z" fill="#292929"/>
</g>
<path d="M75.53 14.5581H107.77L123.94 42.5181L107.77 70.4781H75.53L59.36 42.5181L75.53 14.5581Z" fill="#FFDE83"/>
<g style="mix-blend-mode:multiply" opacity="0.3">
<path d="M158.04 151.328L167.68 140.618H158.04" fill="#292929"/>
</g>
<path d="M230.42 96.6279V129.448H268.51V96.6279H230.42ZM247 114.118C246.134 113.579 245.447 112.795 245.026 111.866C244.605 110.936 244.469 109.903 244.635 108.896C244.801 107.89 245.262 106.955 245.959 106.21C246.657 105.465 247.559 104.944 248.553 104.712C249.546 104.48 250.586 104.548 251.541 104.907C252.497 105.266 253.324 105.9 253.919 106.729C254.513 107.558 254.849 108.545 254.883 109.564C254.917 110.584 254.648 111.591 254.11 112.458C253.733 113.016 253.271 113.512 252.74 113.928L252.84 121.328H246.7L247 114.118Z" fill="url(#paint0_linear_2950_123365)"/>
<path d="M208.5 53.2378C209.294 56.7148 209.557 60.2921 209.28 63.8479C208.652 72.8372 204.943 81.3347 198.777 87.9066C192.612 94.4784 184.368 98.7222 175.437 99.9218C166.506 101.121 157.435 99.2034 149.753 94.4914C142.072 89.7794 136.252 82.5619 133.274 74.0569C130.297 65.5519 130.344 56.28 133.409 47.8059C136.473 39.3318 142.367 32.1743 150.096 27.5412C157.825 22.9082 166.916 21.0831 175.834 22.3742C184.752 23.6652 192.952 27.9932 199.05 34.6278C203.758 39.9085 207.014 46.321 208.5 53.2378V53.2378Z" stroke="#686868" stroke-width="1.5" stroke-linecap="round" stroke-linejoin="round"/>
<path d="M197 89.4679C167.1 91.3179 163.1 72.4679 162.62 64.6279C162.42 62.2979 162.91 58.3979 164.27 56.5479C167.1 52.6479 173.92 46.9979 189.6 46.8979C198.46 46.8979 200.7 46.8979 205.77 47.0979" stroke="#686868" stroke-width="1.5" stroke-linecap="round" stroke-linejoin="round"/>
<path d="M162.62 18.0679L163.69 22.3479" stroke="#686868" stroke-width="1.5" stroke-linecap="round" stroke-linejoin="round"/>
<path d="M161.35 17.8681C164.415 17.8681 166.9 15.3832 166.9 12.3181C166.9 9.25289 164.415 6.76807 161.35 6.76807C158.285 6.76807 155.8 9.25289 155.8 12.3181C155.8 15.3832 158.285 17.8681 161.35 17.8681Z" fill="#FF8853"/>
<path d="M161.54 17.768C164.605 17.768 167.09 15.2831 167.09 12.218C167.09 9.15279 164.605 6.66797 161.54 6.66797C158.475 6.66797 155.99 9.15279 155.99 12.218C155.99 15.2831 158.475 17.768 161.54 17.768Z" stroke="#686868" stroke-width="1.5" stroke-linecap="round" stroke-linejoin="round"/>
<path d="M132.9 152.698C132.22 160.215 131.148 167.692 129.69 175.098L123.69 214.938C123.289 216.921 123.323 218.968 123.79 220.938C124.596 224.217 126.46 227.139 129.094 229.252C131.727 231.365 134.984 232.552 138.36 232.628V232.628C146.64 232.828 150.24 228.738 153.17 219.628L161.45 178.628H174.21" stroke="#686868" stroke-width="1.5" stroke-linecap="round" stroke-linejoin="round"/>
<path d="M171.58 178.708L174.11 219.428C174.596 222.96 176.325 226.203 178.986 228.577C181.647 230.95 185.066 232.297 188.63 232.378V232.378C190.605 232.425 192.57 232.079 194.411 231.361C196.252 230.643 197.932 229.566 199.354 228.195C200.776 226.823 201.912 225.183 202.695 223.369C203.479 221.555 203.895 219.604 203.92 217.628V217.628V216.948L202.56 148.268C202.65 143.598 202.17 133.858 201.56 125.088C200.802 113.712 198.341 102.514 194.26 91.8682V91.8682" stroke="#686868" stroke-width="1.5" stroke-linecap="round" stroke-linejoin="round"/>
<path d="M254 130.188C251.66 136.618 249 141.788 239 142.078C226.82 142.368 214.74 137.498 202.08 128.728C202.08 128.728 206.56 105.348 202.08 91.9082" stroke="#686868" stroke-width="1.5" stroke-linecap="round" stroke-linejoin="round"/>
<path d="M199.34 88.688C202.95 94.248 215.12 102.428 229.44 108.078" stroke="#686868" stroke-width="1.5" stroke-linecap="round" stroke-linejoin="round"/>
<g style="mix-blend-mode:multiply">
<path d="M264 95.6278V91.3178C264.004 89.4243 263.634 87.5487 262.911 85.7986C262.188 84.0485 261.127 82.4584 259.788 81.1195C258.449 79.7807 256.859 78.7194 255.109 77.9966C253.359 77.2738 251.483 76.9038 249.59 76.9078V76.9078C247.696 76.9025 245.819 77.2716 244.068 77.9937C242.317 78.7159 240.725 79.777 239.385 81.116C238.045 82.455 236.983 84.0456 236.26 85.7963C235.536 87.5471 235.166 89.4235 235.17 91.3178V91.3178V95.8078" stroke="#686868" stroke-width="1.5" stroke-linecap="round" stroke-linejoin="round"/>
</g>
<path d="M257.21 95.808V90.628C257.21 89.6422 257.016 88.6661 256.638 87.7555C256.261 86.8449 255.707 86.0177 255.01 85.3211C254.312 84.6245 253.484 84.0723 252.573 83.696C251.662 83.3197 250.686 83.1266 249.7 83.128H249.61C247.609 83.1225 245.687 83.9075 244.262 85.3121C242.837 86.7166 242.024 88.6271 242 90.628V90.628V96.088" stroke="#686868" stroke-width="1.5" stroke-linecap="round" stroke-linejoin="round"/>
<path d="M268.41 96.5879H230.32V129.418H268.41V96.5879Z" stroke="#686868" stroke-width="1.5" stroke-linecap="round" stroke-linejoin="round"/>
<path d="M244.15 110.318C244.147 109.414 244.378 108.524 244.819 107.734C245.26 106.945 245.898 106.283 246.67 105.812C247.442 105.34 248.322 105.076 249.226 105.045C250.13 105.013 251.027 105.215 251.83 105.631C252.633 106.047 253.315 106.663 253.81 107.42C254.306 108.177 254.598 109.048 254.658 109.951C254.719 110.853 254.545 111.756 254.155 112.572C253.765 113.387 253.171 114.089 252.43 114.608L252.53 122.008H246.39L246.68 114.798C245.898 114.343 245.252 113.689 244.807 112.901C244.363 112.114 244.136 111.222 244.15 110.318V110.318Z" stroke="#686868" stroke-width="1.5" stroke-linecap="round" stroke-linejoin="round"/>
<path d="M144.59 70.4779C147.655 70.4779 150.14 67.9931 150.14 64.9279C150.14 61.8628 147.655 59.3779 144.59 59.3779C141.525 59.3779 139.04 61.8628 139.04 64.9279C139.04 67.9931 141.525 70.4779 144.59 70.4779Z" stroke="#686868" stroke-width="1.5" stroke-linecap="round" stroke-linejoin="round"/>
<path d="M132.61 152.498H155.7C156.001 152.506 156.301 152.454 156.582 152.346C156.863 152.237 157.119 152.074 157.337 151.866C157.555 151.657 157.729 151.408 157.849 151.132C157.97 150.856 158.035 150.559 158.04 150.258V104.088C158.035 103.787 157.97 103.49 157.849 103.214C157.729 102.938 157.555 102.688 157.337 102.48C157.119 102.272 156.863 102.109 156.582 102C156.301 101.892 156.001 101.84 155.7 101.848H91.7C91.3989 101.84 91.0992 101.892 90.8183 102C90.5373 102.109 90.2806 102.272 90.063 102.48C89.8455 102.688 89.6713 102.938 89.5507 103.214C89.43 103.49 89.3652 103.787 89.36 104.088V104.088V150.258C89.3568 150.562 89.416 150.863 89.5337 151.142C89.6515 151.422 89.8254 151.675 90.0448 151.885C90.2641 152.095 90.5241 152.258 90.8088 152.363C91.0935 152.468 91.3968 152.514 91.7 152.498H108.26" stroke="#686868" stroke-width="1.5" stroke-linecap="round" stroke-linejoin="round"/>
<path d="M141.38 87.918C135.967 91.565 131.081 95.9393 126.86 100.918" stroke="#686868" stroke-width="1.5" stroke-linecap="round" stroke-linejoin="round"/>
<path d="M108.55 153.958C108.55 147.238 113.42 142.078 120.05 142.078C123.278 142.078 126.373 143.36 128.656 145.643C130.938 147.925 132.22 151.02 132.22 154.248V154.248L131.93 154.448C125.7 159.808 118.19 162.048 108.65 154.248L108.55 153.958Z" stroke="#686868" stroke-width="1.5" stroke-linecap="round" stroke-linejoin="round"/>
<path d="M123.37 133.218C127.192 133.218 130.29 130.12 130.29 126.298C130.29 122.476 127.192 119.378 123.37 119.378C119.548 119.378 116.45 122.476 116.45 126.298C116.45 130.12 119.548 133.218 123.37 133.218Z" fill="#D1DAFA"/>
<path d="M122.38 133.218C126.202 133.218 129.3 130.12 129.3 126.298C129.3 122.476 126.202 119.378 122.38 119.378C118.558 119.378 115.46 122.476 115.46 126.298C115.46 130.12 118.558 133.218 122.38 133.218Z" stroke="#686868" stroke-width="1.5" stroke-linecap="round" stroke-linejoin="round"/>
<path d="M158.04 151.328L167.68 140.618H158.04" stroke="#686868" stroke-width="1.5" stroke-linecap="round" stroke-linejoin="round"/>
<path d="M143.23 89.6279C143.23 89.6279 140.11 97.0279 141.38 100.928" stroke="#686868" stroke-width="1.5" stroke-linecap="round" stroke-linejoin="round"/>
<path d="M135.14 92.688C135.14 92.688 134.76 98.628 137.39 101.848" stroke="#686868" stroke-width="1.5" stroke-linecap="round" stroke-linejoin="round"/>
<path d="M134.17 78.9478H128.62C127.788 78.9464 126.963 79.1096 126.194 79.4279C125.425 79.7461 124.726 80.2133 124.138 80.8024C123.549 81.3915 123.083 82.091 122.766 82.8607C122.449 83.6305 122.287 84.4553 122.29 85.2878V100.968" stroke="#686868" stroke-width="1.5" stroke-linecap="round" stroke-linejoin="round"/>
<path d="M122.97 221.368H60.82" stroke="#686868" stroke-width="1.5" stroke-linecap="round" stroke-linejoin="round"/>
<path d="M289.94 221.368H204.02" stroke="#686868" stroke-width="1.5" stroke-linecap="round" stroke-linejoin="round"/>
<path d="M32.86 221.368H11.33" stroke="#686868" stroke-width="1.5" stroke-linecap="round" stroke-linejoin="round"/>
<path d="M295.78 221.368H316.73" stroke="#686868" stroke-width="1.5" stroke-linecap="round" stroke-linejoin="round"/>
<path d="M34.81 226.928H59.45L66.86 195.068H27.4L34.81 226.928Z" stroke="#686868" stroke-width="1.5"/>
<path d="M257.89 35.0179L252.72 36.6279L257.89 38.2879L259.54 43.4479L261.2 38.2879L266.36 36.6279L261.2 34.9779L259.54 29.8179L257.89 35.0179Z" stroke="#686868" stroke-width="1.5" stroke-miterlimit="10"/>
<path d="M54.78 90.9381L49.61 92.6881L54.78 94.3381L56.53 99.5081L58.19 94.3381L63.35 92.6881L58.19 91.0281L56.53 85.7681L54.78 90.9381Z" stroke="#686868" stroke-width="1.5" stroke-miterlimit="10"/>
<path d="M47.37 170.028C52.8045 170.028 57.21 167.194 57.21 163.698C57.21 160.202 52.8045 157.368 47.37 157.368C41.9355 157.368 37.53 160.202 37.53 163.698C37.53 167.194 41.9355 170.028 47.37 170.028Z" fill="#A4EEC4"/>
<path d="M18.54 192.628C23.9745 192.628 28.38 189.794 28.38 186.298C28.38 182.802 23.9745 179.968 18.54 179.968C13.1055 179.968 8.70001 182.802 8.70001 186.298C8.70001 189.794 13.1055 192.628 18.54 192.628Z" fill="#A4EEC4"/>
<path d="M84.1 194.288C89.5345 194.288 93.94 191.454 93.94 187.958C93.94 184.462 89.5345 181.628 84.1 181.628C78.6655 181.628 74.26 184.462 74.26 187.958C74.26 191.454 78.6655 194.288 84.1 194.288Z" fill="#A4EEC4"/>
<path d="M76.79 173.738C82.2245 173.738 86.63 170.904 86.63 167.408C86.63 163.912 82.2245 161.078 76.79 161.078C71.3555 161.078 66.95 163.912 66.95 167.408C66.95 170.904 71.3555 173.738 76.79 173.738Z" fill="#A4EEC4"/>
<path d="M19.51 173.738C24.9445 173.738 29.35 170.904 29.35 167.408C29.35 163.912 24.9445 161.078 19.51 161.078C14.0755 161.078 9.67001 163.912 9.67001 167.408C9.67001 170.904 14.0755 173.738 19.51 173.738Z" fill="#A4EEC4"/>
<path d="M47.37 163.698L48.37 195.068C49.44 183.668 55.09 179.968 55.09 179.968" stroke="#686868" stroke-width="1.5"/>
<path d="M22.34 169.938C27.975 172.048 33.0604 175.405 37.2162 179.756C41.3721 184.108 44.491 189.342 46.34 195.068C46.34 195.068 39.23 186.298 22.34 186.298" stroke="#686868" stroke-width="1.5"/>
<path d="M51.17 195.068C56.63 174.998 74.94 168.278 74.94 168.278" stroke="#686868" stroke-width="1.5"/>
<path d="M57.02 186.298C62.4545 186.298 66.86 183.464 66.86 179.968C66.86 176.472 62.4545 173.638 57.02 173.638C51.5855 173.638 47.18 176.472 47.18 179.968C47.18 183.464 51.5855 186.298 57.02 186.298Z" fill="#A4EEC4"/>
<path d="M78.06 186.298C78.06 186.298 60.14 184.158 51.66 195.068" stroke="#686868" stroke-width="1.5"/>
<path d="M65.4 203.158H29.35" stroke="#686868" stroke-width="1.5"/>
<g style="mix-blend-mode:multiply">
<path d="M202.53 223.738C201.232 226.502 199.122 228.805 196.481 230.337C193.84 231.87 190.794 232.56 187.75 232.316C184.707 232.071 181.81 230.903 179.448 228.968C177.085 227.034 175.37 224.424 174.53 221.488C171.65 221.418 168.69 221.368 165.66 221.368C161.09 221.368 156.66 221.468 152.46 221.628C149.64 229.368 145.98 232.848 138.34 232.628C135.586 232.572 132.897 231.777 130.556 230.325C128.214 228.874 126.306 226.82 125.03 224.378C119.03 225.588 115.45 227.088 115.45 228.708C115.45 232.778 137.93 236.078 165.66 236.078C193.39 236.078 215.88 232.778 215.88 228.708C215.9 226.808 210.82 225.048 202.53 223.738Z" fill="#292929" fill-opacity="0.3"/>
</g>
<path d="M182.77 116.838H189.25C189.659 116.838 189.99 116.507 189.99 116.098V108.238C189.99 107.829 189.659 107.498 189.25 107.498H182.77C182.361 107.498 182.03 107.829 182.03 108.238V116.098C182.03 116.507 182.361 116.838 182.77 116.838Z" stroke="#686868" stroke-width="1.5" stroke-linecap="round" stroke-linejoin="round"/>
<defs>
<linearGradient id="paint0_linear_2950_123365" x1="241.96" y1="92.3779" x2="256.97" y2="133.608" gradientUnits="userSpaceOnUse">
<stop stop-color="#FF7002"/>
<stop offset="0.22" stop-color="#FC7B0A"/>
<stop offset="0.6" stop-color="#F5991F"/>
<stop offset="0.98" stop-color="#ECBD39"/>
</linearGradient>
</defs>
</svg>
